<?xml version="1.0" encoding="UTF-8" standalone="no"?>
<!-- Created with Inkscape (http://www.inkscape.org/) -->

<svg
   xmlns:osb="http://www.openswatchbook.org/uri/2009/osb"
   xmlns:dc="http://purl.org/dc/elements/1.1/"
   xmlns:cc="http://creativecommons.org/ns#"
   xmlns:rdf="http://www.w3.org/1999/02/22-rdf-syntax-ns#"
   xmlns:svg="http://www.w3.org/2000/svg"
   xmlns="http://www.w3.org/2000/svg"
   xmlns:sodipodi="http://sodipodi.sourceforge.net/DTD/sodipodi-0.dtd"
   xmlns:inkscape="http://www.inkscape.org/namespaces/inkscape"
   width="133.24248mm"
   height="33.602844mm"
   viewBox="0 0 133.24248 33.602844"
   version="1.1"
   id="svg8"
   inkscape:version="0.92.4 (5da689c313, 2019-01-14)"
   sodipodi:docname="logo_horizontal.svg">
  <defs
     id="defs2">
    <linearGradient
       id="linearGradient2352"
       osb:paint="solid">
      <stop
         style="stop-color:#24685d;stop-opacity:1;"
         offset="0"
         id="stop2350" />
    </linearGradient>
  </defs>
  <sodipodi:namedview
     id="base"
     pagecolor="#f9ffdd"
     bordercolor="#666666"
     borderopacity="1.0"
     inkscape:pageopacity="1"
     inkscape:pageshadow="2"
     inkscape:zoom="1.1476306"
     inkscape:cx="67.868871"
     inkscape:cy="41.257578"
     inkscape:document-units="mm"
     inkscape:current-layer="layer1"
     showgrid="false"
     inkscape:pagecheckerboard="true"
     inkscape:window-width="1366"
     inkscape:window-height="715"
     inkscape:window-x="-8"
     inkscape:window-y="-8"
     inkscape:window-maximized="1"
     inkscape:snap-object-midpoints="true"
     inkscape:snap-bbox="true"
     inkscape:snap-bbox-edge-midpoints="true"
     inkscape:snap-bbox-midpoints="false"
     inkscape:snap-global="true"
     inkscape:bbox-paths="false" />
  <metadata
     id="metadata5">
    <rdf:RDF>
      <cc:Work
         rdf:about="">
        <dc:format>image/svg+xml</dc:format>
        <dc:type
           rdf:resource="http://purl.org/dc/dcmitype/StillImage" />
        <dc:title />
      </cc:Work>
    </rdf:RDF>
  </metadata>
  <g
     inkscape:label="Palette"
     inkscape:groupmode="layer"
     id="layer1"
     style="display:inline"
     transform="translate(-7.7963111,-198.57621)">
    <g
       style="display:inline"
       id="g1791"
       transform="matrix(0.87763448,0,0,1.4941664,8.7099934,-117.11756)">
      <rect
         y="187.62628"
         x="-64.497154"
         height="18.213249"
         width="10.881841"
         id="rect1674"
         style="opacity:1;fill:#003e59;fill-opacity:1;fill-rule:nonzero;stroke:none;stroke-width:0;stroke-miterlimit:4;stroke-dasharray:none;stroke-dashoffset:0;stroke-opacity:1" />
      <rect
         y="187.62628"
         x="-53.615318"
         height="18.213249"
         width="10.881841"
         id="rect1674-0"
         style="display:inline;opacity:1;fill:#1d627f;fill-opacity:1;fill-rule:nonzero;stroke:none;stroke-width:0;stroke-miterlimit:4;stroke-dasharray:none;stroke-dashoffset:0;stroke-opacity:1" />
      <rect
         y="187.62628"
         x="-42.733479"
         height="18.213249"
         width="10.881841"
         id="rect1674-0-9"
         style="display:inline;opacity:1;fill:#1d7aa2;fill-opacity:1;fill-rule:nonzero;stroke:none;stroke-width:0;stroke-miterlimit:4;stroke-dasharray:none;stroke-dashoffset:0;stroke-opacity:1" />
      <rect
         y="187.62628"
         x="-31.851643"
         height="18.213249"
         width="10.881841"
         id="rect1674-0-6"
         style="display:inline;opacity:1;fill:#2d9ece;fill-opacity:1;fill-rule:nonzero;stroke:none;stroke-width:0;stroke-miterlimit:4;stroke-dasharray:none;stroke-dashoffset:0;stroke-opacity:1" />
      <rect
         y="187.62628"
         x="-20.969799"
         height="18.213249"
         width="10.881841"
         id="rect1674-0-4"
         style="display:inline;opacity:1;fill:#97d5ef;fill-opacity:1;fill-rule:nonzero;stroke:none;stroke-width:0;stroke-miterlimit:4;stroke-dasharray:none;stroke-dashoffset:0;stroke-opacity:1" />
      <rect
         y="205.83954"
         x="-64.497154"
         height="18.213249"
         width="10.881841"
         id="rect1674-5"
         style="display:inline;opacity:1;fill:#24685d;fill-opacity:1;fill-rule:nonzero;stroke:none;stroke-width:0;stroke-miterlimit:4;stroke-dasharray:none;stroke-dashoffset:0;stroke-opacity:1" />
      <rect
         y="205.83954"
         x="-53.615318"
         height="18.213249"
         width="10.881841"
         id="rect1674-0-1"
         style="display:inline;opacity:1;fill:#3e9183;fill-opacity:1;fill-rule:nonzero;stroke:none;stroke-width:0;stroke-miterlimit:4;stroke-dasharray:none;stroke-dashoffset:0;stroke-opacity:1" />
      <rect
         y="205.83954"
         x="-42.733479"
         height="18.213249"
         width="10.881841"
         id="rect1674-0-9-6"
         style="display:inline;opacity:1;fill:#6dc1b3;fill-opacity:1;fill-rule:nonzero;stroke:none;stroke-width:0;stroke-miterlimit:4;stroke-dasharray:none;stroke-dashoffset:0;stroke-opacity:1" />
      <rect
         y="205.83954"
         x="-31.851643"
         height="18.213249"
         width="10.881841"
         id="rect1674-0-6-6"
         style="display:inline;opacity:1;fill:#7cddcd;fill-opacity:1;fill-rule:nonzero;stroke:none;stroke-width:0;stroke-miterlimit:4;stroke-dasharray:none;stroke-dashoffset:0;stroke-opacity:1" />
      <rect
         y="205.83954"
         x="-20.969799"
         height="18.213249"
         width="10.881841"
         id="rect1674-0-4-9"
         style="display:inline;opacity:1;fill:#a7f9ec;fill-opacity:1;fill-rule:nonzero;stroke:none;stroke-width:0;stroke-miterlimit:4;stroke-dasharray:none;stroke-dashoffset:0;stroke-opacity:1" />
      <rect
         y="224.05278"
         x="-64.497154"
         height="18.213249"
         width="10.881841"
         id="rect1674-53"
         style="display:inline;opacity:1;fill:#566021;fill-opacity:1;fill-rule:nonzero;stroke:none;stroke-width:0;stroke-miterlimit:4;stroke-dasharray:none;stroke-dashoffset:0;stroke-opacity:1" />
      <rect
         y="224.05278"
         x="-53.615318"
         height="18.213249"
         width="10.881841"
         id="rect1674-0-62"
         style="display:inline;opacity:1;fill:#9daa5a;fill-opacity:1;fill-rule:nonzero;stroke:none;stroke-width:0;stroke-miterlimit:4;stroke-dasharray:none;stroke-dashoffset:0;stroke-opacity:1" />
      <rect
         y="224.05278"
         x="-42.733479"
         height="18.213249"
         width="10.881841"
         id="rect1674-0-9-3"
         style="display:inline;opacity:1;fill:#ebff8c;fill-opacity:1;fill-rule:nonzero;stroke:none;stroke-width:0;stroke-miterlimit:4;stroke-dasharray:none;stroke-dashoffset:0;stroke-opacity:1" />
      <rect
         y="224.05278"
         x="-31.851643"
         height="18.213249"
         width="10.881841"
         id="rect1674-0-6-8"
         style="display:inline;opacity:1;fill:#f3ffba;fill-opacity:1;fill-rule:nonzero;stroke:none;stroke-width:0;stroke-miterlimit:4;stroke-dasharray:none;stroke-dashoffset:0;stroke-opacity:1" />
      <rect
         y="224.05278"
         x="-20.969799"
         height="18.213249"
         width="10.881841"
         id="rect1674-0-4-6"
         style="display:inline;opacity:1;fill:#f9ffdd;fill-opacity:1;fill-rule:nonzero;stroke:none;stroke-width:0;stroke-miterlimit:4;stroke-dasharray:none;stroke-dashoffset:0;stroke-opacity:1" />
      <rect
         y="242.26601"
         x="-64.497154"
         height="18.213249"
         width="10.881841"
         id="rect1674-7"
         style="display:inline;opacity:1;fill:#2d010d;fill-opacity:1;fill-rule:nonzero;stroke:none;stroke-width:0;stroke-miterlimit:4;stroke-dasharray:none;stroke-dashoffset:0;stroke-opacity:1" />
      <rect
         y="242.26601"
         x="-53.615318"
         height="18.213249"
         width="10.881841"
         id="rect1674-0-97"
         style="display:inline;opacity:1;fill:#66031f;fill-opacity:1;fill-rule:nonzero;stroke:none;stroke-width:0;stroke-miterlimit:4;stroke-dasharray:none;stroke-dashoffset:0;stroke-opacity:1" />
      <rect
         y="242.26601"
         x="-42.733479"
         height="18.213249"
         width="10.881841"
         id="rect1674-0-9-1"
         style="display:inline;opacity:1;fill:#ff0850;fill-opacity:1;fill-rule:nonzero;stroke:none;stroke-width:0;stroke-miterlimit:4;stroke-dasharray:none;stroke-dashoffset:0;stroke-opacity:1" />
    </g>
  </g>
  <g
     inkscape:groupmode="layer"
     id="layer5"
     inkscape:label="Logo horizontal"
     style="display:inline"
     transform="translate(-7.7963111,-198.57621)">
    <g
       style="clip-rule:evenodd;fill-rule:evenodd;image-rendering:optimizeQuality;shape-rendering:geometricPrecision;text-rendering:geometricPrecision"
       id="g918"
       transform="matrix(0.01790242,0,0,0.01790242,0.57712767,124.57241)">
      <path
         class="fil0"
         d="m 784.25182,4774.7316 c 14,29 30,58 48,88 -3,-22 -21,-54 -48,-88 z"
         id="path80-2"
         inkscape:connector-curvature="0"
         style="fill:#000000;fill-rule:nonzero" />
      <polygon
         transform="translate(-735.74818,227.73158)"
         class="fil0"
         points="1573,5016 1549,5002 "
         id="polygon82-0"
         style="fill:#000000;fill-rule:nonzero" />
      <path
         class="fil0"
         d="m 837.25182,5243.7316 c 0,0 0,1 0,1 l 6,4 c 0,0 0,-1 0,-2 z"
         id="path84-5"
         inkscape:connector-curvature="0"
         style="fill:#000000;fill-rule:nonzero" />
      <path
         class="fil1"
         d="m 1013.2518,4635.7316 c 26,34 55,68 85,102 46,51 96,101 143,151 14,14 27,28 40,42 0,1 1,1 1,1 44,48 85,95 117,142 38,56 64,112 69,168 0,0 10,-58 9,-142 0,-30 -2,-63 -6,-98 -1,-13 -3,-25 -5,-38 -4,-30 -10,-60 -18,-90 0,-1 0,-1 0,-1 -16,-59 -39,-119 -74,-175 -16,-27 -35,-54 -58,-79 -216,-243 -374.99998,-302 -374.99998,-443 0,0 -76,207 39,408 10,18 20.99998,35 32.99998,52 z"
         id="path86-9"
         inkscape:connector-curvature="0"
         style="fill:#7cddcd;fill-opacity:1;fill-rule:nonzero" />
      <path
         class="fil2"
         d="m 1606.2518,5040.7316 c -3,26 -6,51 -10,73 -27,169 -88,242 -150,297 -14,-102 -59,-224 -161,-362 -29,-39 -63,-80 -102,-122 0,0 0,0 0,-1 -5,-4 -9,-9 -14,-14 -26,-27 -53,-55 -83,-83 -38,-35 -77,-70 -113.99998,-107 -45,-45 -87,-93 -122,-147 -72,-113 -107,-251 -52,-441 v 0 c -1,1 -194,260 -16,637 1,1 2,4 2,4 0,0 -2,-2 -2,-3 -59,-75 -155,-160 -228,-191 83,184 1,352 -57,447 -60,98 -94,213 -94,336 0,33 2,65 7,96 3,23 8,45 13,67 11,40 25,78 42,114 11,23 23,46 37,68 3,4 5,8 8,12 77,116 190,206 323,253 49,17 102,29 156,34 19.99998,2 39.99998,3 59.99998,3 35,0 69,-3 102,-8 -90,-39 -167.99998,-100 -227.99998,-175 80.99998,56 178.99998,89 283.99998,89 122,0 234,-44 321,-117 0,-1 1,-2 2,-3 -75,43 -163,66 -257,62 -246,-12 -442.99998,-213 -449.99998,-459 -2,-52 6,-103 20,-151 l -6,-4 -28,-15 c -9,-6 -9,-19 0,-24 l 69,-45 131.99998,-85 c 9,-6 22,1 21,13 l -12,238 c 0,11 -12,17 -20.99998,12 l -34,-20 c -9,32 -14,65 -14,99 0,205 165.99998,371 370.99998,371 166,0 306,-108 353,-258 4,-12 23,-65 28,-142 6,-93 -9,-220 -96,-348 z"
         id="path88-2"
         inkscape:connector-curvature="0"
         style="fill:#ff0850;fill-opacity:1;fill-rule:nonzero" />
    </g>
    <text
       style="font-weight:bold;font-size:15.69838047px;font-family:'Futura Md BT';clip-rule:evenodd;fill:#000000;fill-rule:evenodd;stroke-width:0.01790242;image-rendering:optimizeQuality;shape-rendering:geometricPrecision;text-rendering:geometricPrecision"
       id="text90-4"
       class="fil3 fnt0"
       y="219.86217"
       x="38.033493">ARKAVIDIA</text>
    <text
       style="font-weight:normal;font-size:6.87846756px;font-family:'Futura Md BT';clip-rule:evenodd;fill:#000000;fill-rule:evenodd;stroke-width:0.01790242;image-rendering:optimizeQuality;shape-rendering:geometricPrecision;text-rendering:geometricPrecision"
       id="text92-6"
       class="fil3 fnt1"
       y="228.68806"
       x="37.757324">INFORMATICS &amp; IT FESTIVAL</text>
  </g>
</svg>
